<?xml version="1.0" encoding="utf-8"?>
<!-- Generator: Adobe Illustrator 26.1.0, SVG Export Plug-In . SVG Version: 6.00 Build 0)  -->
<svg version="1.1" id="Layer_1" xmlns="http://www.w3.org/2000/svg" xmlns:xlink="http://www.w3.org/1999/xlink" x="0px" y="0px"
	 viewBox="0 0 167 167" style="enable-background:new 0 0 167 167;" xml:space="preserve">
<style type="text/css">
	.st0{fill:#FACACA;}
	.st1{fill:#FFEFEF;}
	.st2{fill:#FFE5E5;}
	.st3{fill:#FF5757;}
	.st4{fill:#FFFFFF;}
</style>
<g>
	<g>
		<path class="st0" d="M97.6,74.9v2c0,0.9-0.1,1.8-0.3,2.7c-0.2,0.9-0.4,1.8-0.8,2.6c-0.4,0.8-0.8,1.7-1.3,2.4
			c-0.5,0.8-1.1,1.5-1.7,2.1c-0.6,0.6-1.4,1.2-2.1,1.7c-0.8,0.5-1.6,0.9-2.4,1.3c-0.8,0.4-1.7,0.6-2.6,0.8c-0.9,0.2-1.8,0.3-2.7,0.3
			h-2v-2c0-1.5,0.2-3,0.7-4.4c0.5-1.4,1.2-2.8,2.1-4c0.8-1.1,1.8-2,2.9-2.9c1.1-0.8,2.2-1.4,3.5-1.9c1.5-0.6,3.1-0.8,4.8-0.8H97.6z"
			/>
	</g>
</g>
<g>
	<g>
		<path class="st0" d="M79,88.9v2h-2c-0.9,0-1.8-0.1-2.7-0.3c-0.9-0.2-1.8-0.4-2.6-0.8c-0.8-0.3-1.6-0.8-2.4-1.3
			c-0.8-0.5-1.5-1.1-2.1-1.7c-0.7-0.7-1.2-1.4-1.7-2.1c-0.5-0.8-0.9-1.6-1.3-2.4c-0.3-0.8-0.6-1.7-0.8-2.6C63.1,78.8,63,77.9,63,77
			v-2h2c0.5,0,1.1,0,1.6,0.1c1.9,0.2,3.7,0.8,5.3,1.8c1.7,1,3,2.2,4.2,3.7c0.9,1.2,1.6,2.5,2.1,4C78.7,85.9,79,87.3,79,88.9z"/>
	</g>
</g>
<g>
	<g>
		<path class="st0" d="M79,76.3v3.5c-0.2-0.3-0.4-0.7-0.7-1c0-0.1-0.1-0.1-0.1-0.1c-0.2-0.2-0.3-0.4-0.5-0.6
			c-0.1-0.1-0.2-0.2-0.2-0.3c-0.1-0.2-0.3-0.3-0.4-0.4c-0.1-0.1-0.2-0.2-0.3-0.3c-0.1-0.1-0.3-0.3-0.4-0.4c-0.1-0.1-0.2-0.2-0.3-0.3
			c-0.1-0.1-0.3-0.2-0.4-0.3c-0.1-0.1-0.2-0.2-0.3-0.3c-0.1-0.1-0.3-0.2-0.4-0.3c-0.1-0.1-0.2-0.2-0.3-0.2c-0.1-0.1-0.3-0.2-0.4-0.3
			c-0.1-0.1-0.2-0.2-0.4-0.2s-0.3-0.2-0.4-0.3c-0.1-0.1-0.3-0.1-0.4-0.2c-0.1-0.1-0.3-0.2-0.4-0.2c-0.2-0.1-0.3-0.1-0.4-0.2
			c-0.1-0.1-0.3-0.1-0.5-0.2c-0.2-0.1-0.3-0.1-0.4-0.2s-0.3-0.1-0.5-0.2l-0.4-0.1c-0.2-0.1-0.3-0.1-0.5-0.2l-0.4-0.1L69,72.7
			c-0.1,0-0.3-0.1-0.4-0.1l-0.5-0.1c-0.1,0-0.3-0.1-0.4-0.1c-0.2,0-0.3-0.1-0.5-0.1c-0.2,0-0.3,0-0.5,0l-0.5,0l-0.5,0
			c-0.1,0-0.2,0-0.3,0c-1.6-2.4-2.4-5-2.4-7.9v-2h2c0.8,0,1.6,0.1,2.4,0.2c1.6,0.3,3.1,0.8,4.5,1.6c1.4,0.8,2.6,1.8,3.7,3.1
			c0.2,0.2,0.3,0.4,0.5,0.6c0.9,1.2,1.6,2.5,2.1,4C78.7,73.3,79,74.8,79,76.3z"/>
	</g>
</g>
<g>
	<g>
		<path class="st0" d="M97.6,62.3v2c0,2.9-0.8,5.5-2.4,7.9c-0.1,0-0.2,0-0.3,0l-0.5,0l-0.5,0c-0.2,0-0.3,0-0.5,0
			c-0.1,0-0.3,0-0.5,0.1c-0.2,0-0.3,0-0.4,0.1L92,72.6c-0.1,0-0.3,0.1-0.4,0.1l-0.5,0.1L90.7,73c-0.2,0-0.3,0.1-0.5,0.2
			c-0.2,0.1-0.3,0.1-0.4,0.1c-0.1,0.1-0.3,0.1-0.5,0.2c-0.2,0.1-0.3,0.1-0.4,0.2l-0.4,0.2L88.1,74c-0.1,0.1-0.3,0.2-0.4,0.2
			l-0.4,0.2c-0.1,0.1-0.3,0.2-0.4,0.2c-0.1,0.1-0.3,0.2-0.4,0.2c-0.1,0.1-0.3,0.2-0.4,0.3c-0.1,0.1-0.3,0.2-0.4,0.3l-0.4,0.3
			c-0.1,0.1-0.3,0.2-0.4,0.3c-0.1,0.1-0.2,0.2-0.3,0.3c-0.1,0.1-0.2,0.2-0.4,0.3c-0.1,0.1-0.2,0.2-0.3,0.3c-0.1,0.1-0.2,0.2-0.3,0.3
			c-0.1,0.1-0.2,0.2-0.3,0.4c-0.1,0.1-0.2,0.2-0.3,0.4c-0.1,0.1-0.2,0.3-0.4,0.5c-0.1,0.1-0.2,0.2-0.2,0.3c-0.2,0.3-0.5,0.6-0.7,1
			v-3.5c0-0.9,0.1-1.8,0.3-2.7c0.2-0.9,0.4-1.8,0.8-2.6c0.4-0.8,0.8-1.7,1.3-2.4c0.5-0.8,1.1-1.5,1.7-2.1c0.6-0.7,1.4-1.2,2.1-1.7
			c0.8-0.5,1.6-0.9,2.4-1.3c0.8-0.3,1.7-0.6,2.6-0.8c0.9-0.2,1.8-0.3,2.7-0.3H97.6z"/>
	</g>
</g>
<g>
	<g>
		<path class="st0" d="M97.6,49.8v2c0,2.9-0.8,5.5-2.4,7.9c-0.1,0-0.2,0-0.3,0l-0.5,0l-0.5,0c-0.2,0-0.3,0-0.5,0.1
			c-0.2,0-0.3,0-0.5,0.1c-0.2,0-0.3,0-0.5,0.1L92,60.1l-0.4,0.1l-0.5,0.1l-0.4,0.1c-0.2,0-0.3,0.1-0.5,0.2c-0.2,0.1-0.3,0.1-0.4,0.1
			l-0.4,0.2C89.2,60.9,89,61,88.9,61l-0.4,0.2l-0.4,0.2c-0.1,0.1-0.3,0.2-0.4,0.2c-0.1,0.1-0.3,0.1-0.4,0.2l-0.4,0.3
			c-0.1,0.1-0.3,0.2-0.4,0.2c-0.1,0.1-0.3,0.2-0.4,0.3c-0.1,0.1-0.2,0.2-0.4,0.3s-0.3,0.2-0.4,0.3c-0.1,0.1-0.2,0.2-0.4,0.3
			c-0.1,0.1-0.2,0.2-0.4,0.3l-0.3,0.3c-0.1,0.1-0.2,0.2-0.4,0.4c-0.1,0.1-0.2,0.2-0.3,0.3c-0.1,0.1-0.3,0.3-0.4,0.4
			c-0.1,0.1-0.2,0.2-0.2,0.3c-0.2,0.2-0.4,0.5-0.6,0.8c-0.2,0.3-0.5,0.6-0.7,1v-3.5c0-0.9,0.1-1.8,0.3-2.7c0.2-0.9,0.4-1.8,0.8-2.6
			c0.3-0.8,0.8-1.7,1.3-2.4c0.5-0.8,1.1-1.5,1.7-2.1c0.6-0.6,1.3-1.2,2.1-1.7c0.8-0.5,1.6-0.9,2.4-1.3s1.7-0.6,2.6-0.8
			s1.8-0.3,2.7-0.3H97.6z"/>
	</g>
</g>
<g>
	<g>
		<path class="st0" d="M79,63.7v3.5c-0.2-0.3-0.4-0.7-0.7-1c-0.2-0.3-0.4-0.5-0.6-0.8l-0.2-0.2c-0.1-0.2-0.3-0.3-0.4-0.5
			c-0.1-0.1-0.2-0.2-0.3-0.3s-0.3-0.3-0.4-0.4C76.2,64,76.2,64,76,63.9c-0.1-0.1-0.3-0.2-0.4-0.4l-0.3-0.3c-0.1-0.1-0.3-0.2-0.4-0.3
			c-0.1-0.1-0.2-0.2-0.4-0.2c-0.1-0.1-0.3-0.2-0.4-0.3s-0.2-0.2-0.4-0.2c-0.1-0.1-0.3-0.2-0.4-0.3L73,61.7c-0.1-0.1-0.3-0.2-0.4-0.2
			c-0.2-0.1-0.3-0.1-0.4-0.2l-0.4-0.2c-0.1-0.1-0.3-0.1-0.4-0.2c-0.1-0.1-0.3-0.1-0.5-0.2c-0.2-0.1-0.3-0.1-0.4-0.1
			s-0.3-0.1-0.5-0.2l-0.4-0.1L69,60.2c-0.1,0-0.3-0.1-0.4-0.1L68.1,60c-0.2,0-0.3-0.1-0.5-0.1c-0.2,0-0.3-0.1-0.5-0.1
			c-0.2,0-0.3,0-0.5,0l-0.5,0l-0.5,0c-0.1,0-0.2,0-0.3,0c-1.6-2.4-2.4-5-2.4-7.9v-2h2c0.5,0,1.1,0,1.6,0.1c1.9,0.2,3.7,0.8,5.3,1.8
			c1.7,1,3,2.2,4.2,3.7c0.9,1.2,1.6,2.5,2.1,4C78.7,60.8,79,62.2,79,63.7z"/>
	</g>
</g>
<g>
	<g>
		<path class="st0" d="M79,51.2v3.5c-0.2-0.3-0.4-0.7-0.7-1c-0.2-0.3-0.4-0.5-0.6-0.8c-0.1-0.1-0.1-0.2-0.2-0.2
			c-0.1-0.2-0.3-0.3-0.4-0.5c-0.1-0.1-0.2-0.2-0.3-0.3c-0.1-0.1-0.3-0.3-0.4-0.4c-0.1-0.1-0.2-0.2-0.3-0.3c-0.1-0.1-0.3-0.2-0.4-0.4
			c-0.1-0.1-0.2-0.2-0.3-0.3c-0.1-0.1-0.3-0.2-0.4-0.3s-0.2-0.2-0.3-0.2c-0.1-0.1-0.3-0.2-0.4-0.3l-0.4-0.2
			c-0.1-0.1-0.3-0.2-0.4-0.3c-0.1-0.1-0.3-0.1-0.4-0.2c-0.1-0.1-0.3-0.2-0.4-0.2c-0.2-0.1-0.3-0.1-0.4-0.2c-0.1-0.1-0.3-0.1-0.5-0.2
			c-0.2-0.1-0.3-0.1-0.4-0.2s-0.3-0.1-0.5-0.2L70.4,48c-0.2-0.1-0.3-0.1-0.5-0.2l-0.4-0.1L69,47.6c-0.1,0-0.3-0.1-0.4-0.1l-0.5-0.1
			l-0.4-0.1c-0.2,0-0.3-0.1-0.5-0.1c-0.2,0-0.3,0-0.5,0l-0.5,0l-0.5,0c-0.1,0-0.2,0-0.3,0c-1.6-2.4-2.4-5-2.4-7.9v-2h2
			c2.9,0,5.5,0.8,7.9,2.5c0.4,0.3,0.8,0.6,1.1,0.9c1.3,1.1,2.3,2.4,3.1,3.8s1.4,3,1.6,4.7C78.9,49.8,79,50.5,79,51.2z"/>
	</g>
</g>
<g>
	<g>
		<path class="st0" d="M97.6,37.2v2c0,2.9-0.8,5.5-2.4,7.9c-0.1,0-0.2,0-0.3,0l-0.5,0l-0.5,0c-0.2,0-0.3,0-0.5,0.1
			c-0.1,0-0.3,0-0.5,0.1c-0.2,0-0.3,0-0.4,0.1L92,47.5c-0.1,0-0.3,0.1-0.4,0.1l-0.5,0.1l-0.4,0.1c-0.2,0-0.3,0.1-0.5,0.2
			c-0.2,0.1-0.3,0.1-0.4,0.1s-0.3,0.1-0.5,0.2c-0.2,0.1-0.3,0.1-0.4,0.2l-0.4,0.2l-0.4,0.2c-0.1,0.1-0.3,0.2-0.4,0.2
			c-0.1,0.1-0.3,0.1-0.4,0.2c-0.1,0.1-0.3,0.2-0.4,0.2c-0.1,0.1-0.3,0.2-0.4,0.2L86,50.1c-0.1,0.1-0.2,0.2-0.4,0.3s-0.3,0.2-0.4,0.3
			c-0.1,0.1-0.2,0.2-0.4,0.3c-0.1,0.1-0.2,0.2-0.4,0.3c-0.1,0.1-0.2,0.2-0.3,0.3c-0.1,0.1-0.2,0.2-0.4,0.4c-0.1,0.1-0.2,0.2-0.3,0.3
			c-0.1,0.1-0.2,0.3-0.4,0.4C83,52.9,83,52.9,82.9,53c-0.2,0.2-0.4,0.5-0.6,0.7l0,0.1c-0.2,0.3-0.5,0.6-0.7,1v-3.6
			c0-1.7,0.3-3.3,0.9-4.8c0.9-2.5,2.5-4.6,4.6-6.2c0.2-0.1,0.4-0.3,0.6-0.4c2.4-1.6,5-2.5,7.9-2.4L97.6,37.2z"/>
	</g>
</g>
<g>
	<g>
		<path class="st0" d="M85.7,37.8C85.7,37.8,85.6,37.9,85.7,37.8c-0.3,0.3-0.6,0.5-0.8,0.7l-0.1,0c-0.3,0.2-0.5,0.4-0.7,0.7
			l-0.2,0.2c-0.2,0.2-0.3,0.3-0.5,0.5l-0.2,0.2c-0.2,0.2-0.3,0.4-0.5,0.6l-0.1,0.2c-0.2,0.3-0.4,0.5-0.6,0.8c0,0.1-0.1,0.1-0.1,0.2
			c-0.1,0.2-0.3,0.4-0.4,0.7c-0.1,0.1-0.1,0.2-0.2,0.3c-0.1,0.2-0.2,0.4-0.3,0.6l-0.1,0.3c-0.2,0.3-0.3,0.6-0.4,0.9
			c-0.1-0.3-0.3-0.6-0.4-0.9l-0.1-0.3c-0.1-0.2-0.2-0.4-0.3-0.6c-0.1-0.1-0.1-0.2-0.2-0.3c-0.1-0.2-0.3-0.4-0.4-0.6l-0.1-0.2
			c-0.2-0.3-0.4-0.5-0.6-0.8L78,40.8c-0.2-0.2-0.3-0.4-0.5-0.6c-0.1-0.1-0.1-0.2-0.2-0.2c-0.2-0.2-0.3-0.4-0.5-0.5l-0.2-0.2
			c-0.2-0.2-0.5-0.5-0.7-0.7l-0.1,0c-0.2-0.2-0.5-0.4-0.7-0.6c0,0-0.1-0.1-0.1-0.1c-0.2-1.1-0.2-2.1-0.1-3.2
			c0.1-1.1,0.3-2.1,0.7-3.1c0.3-1,0.8-2,1.4-2.9c0.6-0.9,1.2-1.8,2-2.5l1.4-1.4l1.4,1.4c0.8,0.8,1.4,1.6,2,2.5
			c0.6,0.9,1,1.9,1.4,2.9c0.3,1,0.6,2.1,0.7,3.1C85.9,35.7,85.8,36.8,85.7,37.8z"/>
	</g>
</g>
<g>
	<g>
		<path class="st1" d="M122.4,82.2v1.7c0,0.8-0.1,1.5-0.2,2.2c-0.1,0.7-0.4,1.5-0.7,2.2c-0.3,0.7-0.6,1.4-1.1,2
			c-0.4,0.6-0.9,1.2-1.4,1.7c-0.5,0.5-1.1,1-1.7,1.4c-0.6,0.4-1.3,0.8-2,1.1c-0.7,0.3-1.4,0.5-2.2,0.7c-0.7,0.1-1.5,0.2-2.2,0.2
			h-1.7v-1.7c0-2.6,0.8-4.9,2.3-6.9c0.7-0.9,1.5-1.7,2.4-2.4c0.9-0.7,1.8-1.2,2.9-1.5c1.3-0.5,2.6-0.7,3.9-0.7H122.4z"/>
	</g>
</g>
<g>
	<g>
		<path class="st1" d="M107.1,93.7v1.7h-1.7c-0.8,0-1.5-0.1-2.2-0.2c-0.7-0.2-1.5-0.4-2.2-0.7c-0.7-0.3-1.4-0.6-2-1.1
			c-0.6-0.4-1.2-0.9-1.7-1.4c-0.5-0.5-1-1.1-1.4-1.7c-0.4-0.6-0.8-1.3-1.1-2c-0.3-0.7-0.5-1.4-0.7-2.2c-0.2-0.7-0.2-1.5-0.2-2.2
			v-1.7h1.7c0.4,0,0.9,0,1.3,0.1c1.6,0.2,3,0.7,4.4,1.4c1.4,0.8,2.5,1.8,3.4,3.1C106.3,88.8,107.1,91.1,107.1,93.7z"/>
	</g>
</g>
<g>
	<g>
		<path class="st1" d="M107.1,83.4v2.9c-0.2-0.3-0.4-0.5-0.5-0.8c0,0-0.1-0.1-0.1-0.1c-0.1-0.2-0.3-0.3-0.4-0.5
			c-0.1-0.1-0.1-0.2-0.2-0.2c-0.1-0.1-0.2-0.2-0.3-0.4c-0.1-0.1-0.2-0.2-0.2-0.2c-0.1-0.1-0.2-0.2-0.3-0.3c-0.1-0.1-0.2-0.2-0.3-0.2
			c-0.1-0.1-0.2-0.2-0.3-0.3c-0.1-0.1-0.2-0.1-0.3-0.2c-0.1-0.1-0.2-0.2-0.3-0.3c-0.1-0.1-0.2-0.1-0.3-0.2c-0.1-0.1-0.2-0.2-0.3-0.2
			c-0.1-0.1-0.2-0.1-0.3-0.2c-0.1-0.1-0.2-0.2-0.4-0.2c-0.1-0.1-0.2-0.1-0.3-0.2c-0.1-0.1-0.2-0.1-0.4-0.2c-0.1-0.1-0.2-0.1-0.3-0.2
			c-0.1-0.1-0.2-0.1-0.4-0.2c-0.1-0.1-0.2-0.1-0.3-0.1c-0.1,0-0.2-0.1-0.4-0.2l-0.3-0.1c-0.1,0-0.3-0.1-0.4-0.1l-0.4-0.1l-0.4-0.1
			c-0.1,0-0.2-0.1-0.4-0.1l-0.4-0.1c-0.1,0-0.2,0-0.4-0.1c-0.1,0-0.3,0-0.4-0.1c-0.1,0-0.2,0-0.4,0l-0.4,0l-0.4,0
			c-0.1,0-0.2,0-0.3,0c-1.3-1.9-2-4.1-2-6.5v-1.7h1.7c0.7,0,1.3,0.1,2,0.2c1.3,0.2,2.6,0.7,3.7,1.3s2.2,1.5,3,2.5
			c0.1,0.2,0.3,0.3,0.4,0.5C106.3,78.5,107.1,80.8,107.1,83.4z"/>
	</g>
</g>
<path class="st1" d="M122.4,71.9v1.7c0,2.4-0.7,4.5-2,6.5c-0.1,0-0.2,0-0.3,0l-0.4,0l-0.4,0c-0.1,0-0.3,0-0.4,0
	c-0.1,0-0.3,0-0.4,0.1c-0.1,0-0.2,0-0.4,0.1l-0.4,0.1c-0.1,0-0.2,0.1-0.4,0.1l-0.4,0.1l-0.4,0.1c-0.1,0-0.3,0.1-0.4,0.1
	c-0.1,0-0.2,0.1-0.4,0.1c-0.1,0-0.2,0.1-0.4,0.1c-0.1,0.1-0.2,0.1-0.3,0.1l-0.4,0.2l-0.3,0.2c-0.1,0.1-0.2,0.1-0.3,0.2l-0.3,0.2
	c-0.1,0.1-0.2,0.1-0.3,0.2c-0.1,0.1-0.2,0.1-0.3,0.2c-0.1,0.1-0.2,0.2-0.3,0.2c-0.1,0.1-0.2,0.1-0.3,0.2l-0.3,0.2
	c-0.1,0.1-0.2,0.2-0.3,0.2c-0.1,0.1-0.2,0.2-0.3,0.2c-0.1,0.1-0.2,0.2-0.3,0.3c-0.1,0.1-0.2,0.2-0.3,0.3c-0.1,0.1-0.2,0.2-0.3,0.3
	c-0.1,0.1-0.2,0.2-0.3,0.3c-0.1,0.1-0.2,0.2-0.3,0.3c-0.1,0.1-0.2,0.3-0.3,0.4c-0.1,0.1-0.1,0.2-0.2,0.2c-0.2,0.3-0.4,0.5-0.5,0.8
	v-2.9c0-0.8,0.1-1.5,0.2-2.2c0.1-0.7,0.4-1.5,0.7-2.2c0.3-0.7,0.6-1.4,1.1-2c0.4-0.6,0.9-1.2,1.4-1.7c0.5-0.5,1.1-1,1.7-1.4
	c0.6-0.4,1.3-0.8,2-1.1c0.7-0.3,1.4-0.5,2.2-0.7c0.7-0.1,1.5-0.2,2.2-0.2H122.4z"/>
<path class="st1" d="M122.4,61.5v1.7c0,2.4-0.7,4.5-2,6.5c-0.1,0-0.2,0-0.2,0l-0.4,0l-0.4,0c-0.1,0-0.3,0-0.4,0s-0.3,0-0.4,0.1
	c-0.1,0-0.2,0-0.4,0.1l-0.4,0.1l-0.4,0.1l-0.4,0.1l-0.4,0.1c-0.1,0-0.3,0.1-0.4,0.1c-0.1,0-0.2,0.1-0.4,0.1l-0.4,0.2
	c-0.1,0-0.2,0.1-0.3,0.1l-0.4,0.2l-0.3,0.2c-0.1,0.1-0.2,0.1-0.3,0.2c-0.1,0.1-0.2,0.1-0.3,0.2l-0.3,0.2c-0.1,0.1-0.2,0.1-0.3,0.2
	c-0.1,0.1-0.2,0.2-0.3,0.2c-0.1,0.1-0.2,0.1-0.3,0.2c-0.1,0.1-0.2,0.2-0.3,0.2c-0.1,0.1-0.2,0.2-0.3,0.2c-0.1,0.1-0.2,0.2-0.3,0.3
	l-0.3,0.2c-0.1,0.1-0.2,0.2-0.3,0.3c-0.1,0.1-0.2,0.2-0.3,0.3c-0.1,0.1-0.2,0.2-0.3,0.4c-0.1,0.1-0.1,0.1-0.2,0.2
	c-0.2,0.2-0.3,0.4-0.5,0.6c-0.2,0.3-0.4,0.5-0.5,0.8V73c0-0.8,0.1-1.5,0.2-2.2c0.1-0.7,0.4-1.5,0.7-2.2c0.3-0.7,0.6-1.4,1.1-2
	c0.4-0.6,0.9-1.2,1.4-1.7s1.1-1,1.7-1.4c0.6-0.4,1.3-0.8,2-1.1c0.7-0.3,1.4-0.5,2.2-0.7c0.7-0.1,1.5-0.2,2.2-0.2H122.4z"/>
<g>
	<g>
		<path class="st1" d="M107.1,73v2.9c-0.2-0.3-0.4-0.5-0.5-0.8c-0.2-0.2-0.3-0.4-0.5-0.6l-0.2-0.2c-0.1-0.1-0.2-0.3-0.3-0.4
			c-0.1-0.1-0.2-0.2-0.2-0.2s-0.2-0.2-0.3-0.3c-0.1-0.1-0.2-0.2-0.3-0.2c-0.1-0.1-0.2-0.2-0.3-0.3l-0.3-0.2
			c-0.1-0.1-0.2-0.2-0.3-0.3c-0.1-0.1-0.2-0.1-0.3-0.2s-0.2-0.2-0.3-0.2c-0.1-0.1-0.2-0.1-0.3-0.2c-0.1-0.1-0.2-0.1-0.4-0.2
			l-0.3-0.2c-0.1-0.1-0.2-0.1-0.4-0.2c-0.1-0.1-0.2-0.1-0.3-0.2l-0.4-0.2c-0.1,0-0.2-0.1-0.3-0.1c-0.1,0-0.2-0.1-0.4-0.2
			s-0.2-0.1-0.3-0.1c-0.1,0-0.3-0.1-0.4-0.1l-0.4-0.1l-0.4-0.1c-0.1,0-0.2-0.1-0.4-0.1l-0.4-0.1c-0.1,0-0.2,0-0.4-0.1
			c-0.1,0-0.3,0-0.4-0.1c-0.1,0-0.3,0-0.4,0l-0.4,0l-0.4,0c-0.1,0-0.2,0-0.2,0c-1.3-2-2-4.1-2-6.5v-1.7h1.7c0.4,0,0.9,0,1.3,0.1
			c1.6,0.2,3,0.7,4.4,1.4s2.5,1.8,3.4,3.1C106.3,68.2,107.1,70.5,107.1,73z"/>
	</g>
</g>
<g>
	<g>
		<path class="st1" d="M107.1,62.7v2.9c-0.2-0.3-0.4-0.5-0.5-0.8c-0.2-0.2-0.3-0.4-0.5-0.6c-0.1-0.1-0.1-0.1-0.2-0.2
			c-0.1-0.1-0.2-0.3-0.4-0.4c-0.1-0.1-0.1-0.2-0.2-0.2c-0.1-0.1-0.2-0.2-0.3-0.3c-0.1-0.1-0.2-0.1-0.2-0.2c-0.1-0.1-0.2-0.2-0.3-0.3
			c-0.1-0.1-0.2-0.1-0.3-0.2c-0.1-0.1-0.2-0.2-0.3-0.3c-0.1-0.1-0.2-0.1-0.3-0.2c-0.1-0.1-0.2-0.2-0.3-0.2l-0.3-0.2
			c-0.1-0.1-0.2-0.1-0.4-0.2c-0.1-0.1-0.2-0.1-0.3-0.2c-0.1-0.1-0.2-0.1-0.4-0.2c-0.1-0.1-0.2-0.1-0.3-0.2s-0.2-0.1-0.4-0.2
			c-0.1-0.1-0.2-0.1-0.3-0.1c-0.1,0-0.2-0.1-0.4-0.2l-0.3-0.1c-0.1,0-0.3-0.1-0.4-0.1l-0.4-0.1l-0.4-0.1c-0.1,0-0.2-0.1-0.4-0.1
			l-0.4-0.1l-0.4-0.1c-0.1,0-0.3,0-0.4-0.1c-0.1,0-0.2,0-0.4,0l-0.4,0l-0.4,0c-0.1,0-0.2,0-0.3,0c-1.3-1.9-2-4.1-2-6.5v-1.7h1.7
			c2.4,0,4.5,0.7,6.5,2c0.3,0.2,0.6,0.5,0.9,0.7c1.1,0.9,1.9,1.9,2.6,3.2c0.7,1.2,1.1,2.5,1.3,3.9C107,61.6,107.1,62.1,107.1,62.7z"
			/>
	</g>
</g>
<path class="st1" d="M122.4,51.2v1.7c0,2.4-0.7,4.5-2,6.5c-0.1,0-0.2,0-0.3,0l-0.4,0l-0.4,0c-0.1,0-0.3,0-0.4,0
	c-0.1,0-0.3,0-0.4,0.1c-0.1,0-0.2,0-0.4,0.1l-0.4,0.1c-0.1,0-0.2,0.1-0.4,0.1l-0.4,0.1l-0.4,0.1c-0.1,0-0.3,0.1-0.4,0.1
	c-0.1,0-0.2,0.1-0.3,0.1c-0.1,0-0.2,0.1-0.4,0.1c-0.1,0.1-0.2,0.1-0.3,0.1l-0.4,0.2l-0.3,0.2c-0.1,0.1-0.2,0.1-0.3,0.2
	c-0.1,0.1-0.2,0.1-0.3,0.2c-0.1,0.1-0.2,0.1-0.3,0.2c-0.1,0.1-0.2,0.1-0.3,0.2l-0.3,0.2c-0.1,0.1-0.2,0.1-0.3,0.2
	c-0.1,0.1-0.2,0.2-0.3,0.2c-0.1,0.1-0.2,0.2-0.3,0.2c-0.1,0.1-0.2,0.2-0.3,0.3c-0.1,0.1-0.2,0.2-0.3,0.3c-0.1,0.1-0.2,0.2-0.3,0.3
	c-0.1,0.1-0.2,0.2-0.3,0.3c-0.1,0.1-0.2,0.2-0.3,0.3c-0.1,0.1-0.2,0.2-0.2,0.2c-0.2,0.2-0.3,0.4-0.5,0.6l0,0
	c-0.2,0.3-0.4,0.5-0.5,0.8v-2.9c0-1.4,0.2-2.7,0.7-4c0.8-2.1,2-3.8,3.8-5.1c0.2-0.1,0.3-0.2,0.5-0.3c2-1.3,4.1-2,6.5-2L122.4,51.2z"
	/>
<g>
	<g>
		<path class="st1" d="M112.6,51.7C112.6,51.7,112.6,51.7,112.6,51.7c-0.3,0.2-0.5,0.4-0.7,0.5l0,0c-0.2,0.2-0.4,0.4-0.6,0.5
			l-0.2,0.2c-0.1,0.1-0.3,0.3-0.4,0.4l-0.2,0.2c-0.1,0.2-0.3,0.3-0.4,0.5l-0.1,0.1c-0.2,0.2-0.3,0.4-0.5,0.7c0,0-0.1,0.1-0.1,0.2
			c-0.1,0.2-0.2,0.4-0.3,0.5c0,0.1-0.1,0.2-0.1,0.2c-0.1,0.2-0.2,0.3-0.3,0.5l-0.1,0.2c-0.1,0.2-0.2,0.5-0.3,0.7
			c-0.1-0.2-0.2-0.5-0.3-0.7l-0.1-0.2c-0.1-0.2-0.2-0.3-0.3-0.5c0-0.1-0.1-0.2-0.1-0.2c-0.1-0.2-0.2-0.4-0.3-0.5l-0.1-0.2
			c-0.2-0.2-0.3-0.4-0.5-0.7l-0.1-0.1c-0.1-0.2-0.3-0.3-0.4-0.5c-0.1-0.1-0.1-0.1-0.2-0.2c-0.1-0.1-0.3-0.3-0.4-0.4l-0.2-0.2
			c-0.2-0.2-0.4-0.4-0.6-0.6l0,0c-0.2-0.2-0.4-0.3-0.6-0.5c0,0-0.1,0-0.1-0.1c-0.2-1.8-0.1-3.5,0.5-5.2c0.6-1.7,1.5-3.2,2.8-4.5
			l1.2-1.2l1.2,1.2c1.3,1.3,2.2,2.8,2.8,4.5C112.7,48.2,112.9,49.9,112.6,51.7z"/>
	</g>
</g>
<g>
	<g>
		<path class="st2" d="M68.8,84.3v1.4c0,0.6-0.1,1.3-0.2,1.9s-0.3,1.2-0.5,1.8c-0.2,0.6-0.5,1.1-0.9,1.7c-0.4,0.5-0.8,1-1.2,1.5
			c-0.4,0.4-0.9,0.8-1.5,1.2c-0.5,0.4-1.1,0.7-1.7,0.9c-0.6,0.2-1.2,0.4-1.8,0.6c-0.6,0.1-1.2,0.2-1.9,0.2h-1.4V94
			c0-2.1,0.6-4.1,1.9-5.8c0.6-0.8,1.2-1.4,2-2c0.7-0.5,1.6-1,2.4-1.3c1.1-0.4,2.2-0.6,3.3-0.6H68.8z"/>
	</g>
</g>
<g>
	<g>
		<path class="st2" d="M55.9,94v1.4h-1.4c-0.6,0-1.3-0.1-1.9-0.2c-0.6-0.1-1.2-0.3-1.8-0.6c-0.6-0.2-1.1-0.5-1.7-0.9
			c-0.5-0.3-1-0.8-1.5-1.2c-0.4-0.4-0.8-0.9-1.2-1.5c-0.4-0.5-0.7-1.1-0.9-1.7c-0.2-0.6-0.4-1.2-0.5-1.8c-0.1-0.6-0.2-1.2-0.2-1.9
			v-1.4h1.4c0.4,0,0.8,0,1.1,0.1c1.3,0.2,2.5,0.6,3.7,1.2s2.1,1.5,2.9,2.6C55.2,89.9,55.9,91.8,55.9,94z"/>
	</g>
</g>
<g>
	<g>
		<path class="st2" d="M55.9,85.3v2.4c-0.1-0.2-0.3-0.5-0.5-0.7c0,0-0.1-0.1-0.1-0.1c-0.1-0.1-0.2-0.3-0.3-0.4
			c-0.1-0.1-0.1-0.1-0.2-0.2c-0.1-0.1-0.2-0.2-0.3-0.3c-0.1-0.1-0.1-0.1-0.2-0.2c-0.1-0.1-0.2-0.2-0.3-0.3c-0.1-0.1-0.1-0.1-0.2-0.2
			c-0.1-0.1-0.2-0.2-0.3-0.2S53.4,85,53.4,85c-0.1-0.1-0.2-0.2-0.3-0.2c-0.1-0.1-0.2-0.1-0.2-0.2c-0.1-0.1-0.2-0.1-0.3-0.2
			c-0.1-0.1-0.2-0.1-0.3-0.2c-0.1-0.1-0.2-0.1-0.3-0.2c-0.1-0.1-0.2-0.1-0.3-0.1c-0.1-0.1-0.2-0.1-0.3-0.2c-0.1,0-0.2-0.1-0.3-0.1
			c-0.1,0-0.2-0.1-0.3-0.1c-0.1,0-0.2-0.1-0.3-0.1c-0.1,0-0.2-0.1-0.3-0.1L50,83.1c-0.1,0-0.2-0.1-0.3-0.1l-0.3-0.1L49,82.8
			c-0.1,0-0.2,0-0.3-0.1l-0.3-0.1c-0.1,0-0.2,0-0.3-0.1s-0.2,0-0.3,0c-0.1,0-0.2,0-0.3,0l-0.3,0l-0.3,0c-0.1,0-0.1,0-0.2,0
			c-1.1-1.6-1.7-3.4-1.7-5.4v-1.4h1.4c0.6,0,1.1,0.1,1.7,0.1c2.3,0.4,4.2,1.5,5.6,3.2c0.1,0.1,0.2,0.3,0.4,0.4
			C55.2,81.2,55.9,83.1,55.9,85.3z"/>
	</g>
</g>
<g>
	<g>
		<path class="st2" d="M68.8,75.7v1.4c0,2-0.6,3.8-1.7,5.4c-0.1,0-0.1,0-0.2,0l-0.3,0l-0.3,0c-0.1,0-0.2,0-0.3,0c-0.1,0-0.2,0-0.3,0
			c-0.1,0-0.2,0-0.3,0.1l-0.3,0.1c-0.1,0-0.2,0-0.3,0.1l-0.3,0.1L64,83c-0.1,0-0.2,0.1-0.3,0.1c-0.1,0-0.2,0.1-0.3,0.1
			c-0.1,0-0.2,0.1-0.3,0.1c-0.1,0-0.2,0.1-0.3,0.1l-0.3,0.1l-0.3,0.1c-0.1,0.1-0.2,0.1-0.3,0.2L61.6,84c-0.1,0.1-0.2,0.1-0.3,0.2
			c-0.1,0.1-0.2,0.1-0.3,0.2c-0.1,0.1-0.2,0.1-0.3,0.2s-0.2,0.1-0.3,0.2l-0.3,0.2c-0.1,0.1-0.2,0.1-0.3,0.2
			c-0.1,0.1-0.2,0.1-0.2,0.2c-0.1,0.1-0.2,0.2-0.2,0.2c-0.1,0.1-0.2,0.2-0.2,0.2S59.1,86,59.1,86c-0.1,0.1-0.2,0.2-0.2,0.2
			c-0.1,0.1-0.2,0.2-0.2,0.2c-0.1,0.1-0.2,0.2-0.3,0.3c-0.1,0.1-0.1,0.1-0.2,0.2c-0.2,0.2-0.3,0.4-0.5,0.7v-2.4
			c0-0.6,0.1-1.3,0.2-1.9c0.1-0.6,0.3-1.2,0.6-1.8c0.2-0.6,0.5-1.1,0.9-1.7c0.4-0.5,0.8-1,1.2-1.5c0.4-0.4,0.9-0.8,1.5-1.2
			c0.5-0.3,1.1-0.6,1.7-0.9c0.6-0.2,1.2-0.4,1.8-0.5c0.6-0.1,1.2-0.2,1.9-0.2H68.8z"/>
	</g>
</g>
<g>
	<g>
		<path class="st2" d="M68.8,67v1.4c0,2-0.6,3.8-1.7,5.4c-0.1,0-0.1,0-0.2,0l-0.3,0l-0.3,0c-0.1,0-0.2,0-0.3,0c-0.1,0-0.2,0-0.3,0.1
			s-0.2,0-0.3,0.1l-0.3,0.1l-0.3,0.1l-0.3,0.1L64,74.3c-0.1,0-0.2,0.1-0.3,0.1c-0.1,0-0.2,0.1-0.3,0.1L63,74.6
			c-0.1,0-0.2,0.1-0.3,0.1l-0.3,0.1L62.2,75c-0.1,0.1-0.2,0.1-0.3,0.2c-0.1,0.1-0.2,0.1-0.3,0.2l-0.3,0.2c-0.1,0.1-0.2,0.1-0.3,0.2
			c-0.1,0.1-0.2,0.1-0.3,0.2c-0.1,0.1-0.2,0.1-0.3,0.2c-0.1,0.1-0.2,0.1-0.3,0.2c-0.1,0.1-0.2,0.1-0.2,0.2c-0.1,0.1-0.2,0.2-0.3,0.2
			l-0.2,0.2c-0.1,0.1-0.2,0.2-0.2,0.3c-0.1,0.1-0.1,0.1-0.2,0.2c-0.1,0.1-0.2,0.2-0.3,0.3c-0.1,0.1-0.1,0.1-0.2,0.2
			c-0.1,0.2-0.3,0.3-0.4,0.5c-0.2,0.2-0.3,0.4-0.5,0.7v-2.4c0-0.6,0.1-1.3,0.2-1.9c0.1-0.6,0.3-1.2,0.5-1.8c0.2-0.6,0.5-1.1,0.9-1.7
			c0.4-0.5,0.8-1,1.2-1.5c0.4-0.4,0.9-0.8,1.5-1.2c0.5-0.3,1.1-0.6,1.7-0.9c0.6-0.2,1.2-0.4,1.8-0.5c0.6-0.1,1.2-0.2,1.9-0.2H68.8z"
			/>
	</g>
</g>
<g>
	<g>
		<path class="st2" d="M55.9,76.6v2.4c-0.1-0.2-0.3-0.5-0.5-0.7c-0.1-0.2-0.3-0.4-0.4-0.5l-0.2-0.2c-0.1-0.1-0.2-0.2-0.3-0.3
			c-0.1-0.1-0.1-0.1-0.2-0.2c-0.1-0.1-0.2-0.2-0.3-0.3c-0.1-0.1-0.1-0.1-0.2-0.2c-0.1-0.1-0.2-0.2-0.3-0.2l-0.2-0.2
			c-0.1-0.1-0.2-0.2-0.3-0.2c-0.1-0.1-0.2-0.1-0.2-0.2c-0.1-0.1-0.2-0.1-0.3-0.2c-0.1-0.1-0.2-0.1-0.3-0.2c-0.1-0.1-0.2-0.1-0.3-0.2
			l-0.3-0.1c-0.1-0.1-0.2-0.1-0.3-0.2c-0.1-0.1-0.2-0.1-0.3-0.1l-0.3-0.1c-0.1,0-0.2-0.1-0.3-0.1c-0.1,0-0.2-0.1-0.3-0.1
			c-0.1,0-0.2-0.1-0.3-0.1c-0.1,0-0.2-0.1-0.3-0.1l-0.3-0.1L49,74.2c-0.1,0-0.2,0-0.3-0.1L48.4,74c-0.1,0-0.2,0-0.3-0.1
			c-0.1,0-0.2,0-0.3,0c-0.1,0-0.2,0-0.3,0l-0.3,0l-0.3,0c-0.1,0-0.1,0-0.2,0c-1.1-1.6-1.7-3.4-1.7-5.4V67h1.4c0.4,0,0.8,0,1.1,0.1
			c1.3,0.2,2.5,0.6,3.7,1.2s2.1,1.5,2.9,2.6C55.2,72.5,55.9,74.5,55.9,76.6z"/>
	</g>
</g>
<g>
	<g>
		<path class="st2" d="M55.9,67.9v2.4c-0.1-0.2-0.3-0.5-0.5-0.7c-0.1-0.2-0.3-0.4-0.4-0.5c0-0.1-0.1-0.1-0.2-0.2
			c-0.1-0.1-0.2-0.2-0.3-0.3c-0.1-0.1-0.1-0.1-0.2-0.2s-0.2-0.2-0.3-0.3c-0.1-0.1-0.1-0.1-0.2-0.2c-0.1-0.1-0.2-0.2-0.3-0.2
			c-0.1-0.1-0.2-0.1-0.2-0.2c-0.1-0.1-0.2-0.2-0.3-0.2c-0.1-0.1-0.2-0.1-0.2-0.2c-0.1-0.1-0.2-0.1-0.3-0.2l-0.2-0.2
			c-0.1-0.1-0.2-0.1-0.3-0.2c-0.1-0.1-0.2-0.1-0.3-0.1c-0.1,0-0.2-0.1-0.3-0.2c-0.1-0.1-0.2-0.1-0.3-0.1c-0.1,0-0.2-0.1-0.3-0.1
			c-0.1,0-0.2-0.1-0.3-0.1c-0.1,0-0.2-0.1-0.3-0.1L50,65.8c-0.1,0-0.2-0.1-0.3-0.1l-0.3-0.1L49,65.5c-0.1,0-0.2,0-0.3-0.1l-0.3-0.1
			l-0.3,0c-0.1,0-0.2,0-0.3-0.1c-0.1,0-0.2,0-0.3,0l-0.3,0l-0.3,0c-0.1,0-0.1,0-0.2,0c-1.1-1.6-1.7-3.4-1.7-5.4v-1.4h1.4
			c2,0,3.8,0.6,5.5,1.7c0.3,0.2,0.5,0.4,0.8,0.6c0.9,0.8,1.6,1.6,2.2,2.7s0.9,2.1,1.1,3.2C55.8,67,55.9,67.5,55.9,67.9z"/>
	</g>
</g>
<g>
	<g>
		<path class="st2" d="M68.8,58.3v1.4c0,2-0.6,3.8-1.7,5.4c-0.1,0-0.1,0-0.2,0l-0.3,0l-0.3,0c-0.1,0-0.2,0-0.3,0c-0.1,0-0.2,0-0.3,0
			c-0.1,0-0.2,0-0.3,0.1l-0.3,0.1c-0.1,0-0.2,0-0.3,0.1l-0.3,0.1L64,65.6c-0.1,0-0.2,0.1-0.3,0.1c-0.1,0-0.2,0.1-0.3,0.1
			c-0.1,0-0.2,0.1-0.3,0.1c-0.1,0-0.2,0.1-0.3,0.1l-0.3,0.1l-0.3,0.1c-0.1,0.1-0.2,0.1-0.3,0.2c-0.1,0.1-0.2,0.1-0.3,0.2
			c-0.1,0.1-0.2,0.1-0.3,0.2S61.1,67,61,67l-0.3,0.2c-0.1,0.1-0.2,0.1-0.3,0.2c-0.1,0.1-0.2,0.1-0.3,0.2c-0.1,0.1-0.2,0.1-0.2,0.2
			c-0.1,0.1-0.2,0.1-0.3,0.2c-0.1,0.1-0.2,0.1-0.2,0.2c-0.1,0.1-0.2,0.2-0.2,0.2c-0.1,0.1-0.2,0.1-0.2,0.2c-0.1,0.1-0.2,0.2-0.3,0.3
			c-0.1,0.1-0.1,0.1-0.2,0.2c-0.1,0.2-0.3,0.3-0.4,0.5l0,0c-0.2,0.2-0.3,0.4-0.5,0.7v-2.5c0-1.1,0.2-2.3,0.6-3.3
			c0.6-1.7,1.7-3.2,3.2-4.3c0.1-0.1,0.3-0.2,0.4-0.3c1.6-1.1,3.5-1.7,5.4-1.7L68.8,58.3z"/>
	</g>
</g>
<g>
	<g>
		<path class="st2" d="M60.5,58.7C60.5,58.7,60.5,58.8,60.5,58.7c-0.2,0.2-0.4,0.3-0.6,0.5l0,0c-0.2,0.2-0.3,0.3-0.5,0.5l-0.1,0.1
			c-0.1,0.1-0.2,0.2-0.4,0.4l-0.1,0.2c-0.1,0.1-0.2,0.3-0.3,0.4l-0.1,0.1c-0.1,0.2-0.3,0.4-0.4,0.6c0,0-0.1,0.1-0.1,0.1
			c-0.1,0.1-0.2,0.3-0.3,0.5c0,0.1-0.1,0.1-0.1,0.2c-0.1,0.1-0.2,0.3-0.2,0.4l-0.1,0.2c-0.1,0.2-0.2,0.4-0.3,0.6
			c-0.1-0.2-0.2-0.4-0.3-0.6l-0.1-0.2c-0.1-0.1-0.2-0.3-0.2-0.4c0-0.1-0.1-0.1-0.1-0.2c-0.1-0.2-0.2-0.3-0.3-0.5l-0.1-0.1
			c-0.1-0.2-0.3-0.4-0.4-0.6l-0.1-0.1c-0.1-0.1-0.2-0.3-0.3-0.4c-0.1-0.1-0.1-0.1-0.2-0.2c-0.1-0.1-0.2-0.2-0.3-0.4l-0.1-0.1
			c-0.2-0.2-0.3-0.3-0.5-0.5l0,0c-0.2-0.1-0.3-0.3-0.5-0.4c0,0,0,0-0.1,0c-0.2-1.5-0.1-3,0.4-4.4c0.5-1.4,1.2-2.7,2.3-3.8l1-1l1,1
			c1.1,1.1,1.8,2.3,2.3,3.7C60.6,55.8,60.7,57.2,60.5,58.7z"/>
	</g>
</g>
<g>
	<g>
		<path class="st3" d="M8.5,91h150.2v30.7H8.5V91z"/>
	</g>
</g>
<g>
	<g transform="translate(25.428688, 88.202279)">
		<g>
			<path class="st4" d="M28.4,29.4l-5.7-8.6c2.1-1,3.7-3.2,3.7-5.8c0-3.8-3.3-6.9-7.9-6.9h-8.1l0,21.3H16v-9.3l5.7,9.3H28.4z
				 M16,13.2h2.3c1.2,0,2.3,0.8,2.3,2.1c0,1.3-1.1,2.2-2.3,2.1l-2.3,0V13.2z"/>
		</g>
	</g>
</g>
<g>
	<g transform="translate(40.474651, 88.202279)">
		<g>
			<path class="st4" d="M30.1,29.4h6.2L26.4,7.8h-2.7l-9.9,21.6H20l1.1-2.5h8L30.1,29.4z M22.8,22.8l2.2-5.1l2.2,5.1H22.8z"/>
		</g>
	</g>
</g>
<g>
	<g transform="translate(57.783463, 88.202279)">
		<g>
			<path class="st4" d="M28.1,8.1l-7,0v21.3h7c7.3,0,11.7-4,11.7-10.6C39.8,12.1,35.3,8,28.1,8.1z M28,24.1h-1.3V13.4h1.3
				c3.8,0,6.2,2,6.2,5.4C34.1,22.1,31.8,24.1,28,24.1z"/>
		</g>
	</g>
</g>
<g>
	<g transform="translate(73.851678, 88.202279)">
		<g>
			<path class="st4" d="M26.5,29.4h5.7V8.1h-5.7V29.4z"/>
		</g>
	</g>
</g>
<g>
	<g transform="translate(80.87842, 88.202279)">
		<g>
			<path class="st4" d="M39.6,29.9c6.6,0,11.7-4.8,11.7-11.2c0-6.4-5.1-11.3-11.7-11.3s-11.7,4.9-11.7,11.3
				C27.9,25.1,33,29.9,39.6,29.9z M39.6,24.5c-3.4,0-6-2.5-6-5.8c0-3.3,2.6-5.8,6-5.8c3.4,0,6,2.5,6,5.8C45.6,22,43,24.5,39.6,24.5z
				"/>
		</g>
	</g>
</g>
<g>
	<g transform="translate(9.368098, 66.767339)">
		<g>
			<path class="st3" d="M18.2,8.6c1,0,2.7-1.8,2.7-4.3C20.8,1,17.6-2,13.2-2h-8v24.3h10.4c4.9,0,8.1-3.6,8.1-7.4
				C23.7,11.2,20.8,8.6,18.2,8.6z M15.4,5.5c0,1.2-1.1,1.9-2.5,1.9h-1.5V3.6H13C14.4,3.6,15.4,4.3,15.4,5.5z M14.6,16.4h-3.2v-4.6
				l3.2,0c1.8,0,2.8,0.9,2.8,2.3C17.5,15.7,16.1,16.4,14.6,16.4z"/>
		</g>
	</g>
</g>
<g>
	<g transform="translate(25.256091, 66.767339)">
		<g>
			<path class="st3" d="M27.3,22.3h7.1L23.1-2.3H20L8.7,22.3h7l1.2-2.8h9.1L27.3,22.3z M19,14.7L21.5,9l2.5,5.8H19z"/>
		</g>
	</g>
</g>
<g>
	<g transform="translate(44.949523, 66.767339)">
		<g>
			<path class="st3" d="M25-2l-7.9,0v24.3H25c8.3,0,13.3-4.6,13.3-12.1C38.3,2.6,33.3-2,25-2z M24.9,16.2h-1.5V4h1.5
				c4.4,0,7,2.3,7,6.1C31.8,13.9,29.2,16.2,24.9,16.2z"/>
		</g>
	</g>
</g>
<g>
	<g transform="translate(63.231442, 66.767339)">
		<g>
			<path class="st3" d="M47.9,8.3H35.5v4.8H41c-0.1,2.3-2.2,3.7-5.1,3.7c-4.5,0-7.2-3.3-7.2-6.7c0-3.8,3.2-6.7,6.8-6.7
				c1.8,0,3.7,0.8,5.1,2.1l3.6-4.9c-2-1.9-5.6-3.2-8.7-3.2c-7.5,0-13.4,5.8-13.4,12.8S28,22.8,35.7,22.8c6.9,0,12.5-4.8,12.5-12.2
				C48.1,9.9,48.1,9.1,47.9,8.3z"/>
		</g>
	</g>
</g>
<g>
	<g transform="translate(84.313804, 66.767339)">
		<g>
			<path class="st3" d="M45.9,4v-6H30.2v24.3h15.7v-6h-9.4v-3.5h7.7V7.4h-7.7V4H45.9z"/>
		</g>
	</g>
</g>
<g>
	<g transform="translate(98.801575, 66.767339)">
		<g>
			<path class="st3" d="M55.5,22.3L49,12.5c2.4-1.1,4.2-3.6,4.2-6.6c0-4.4-3.8-7.9-9-7.9H35l0,24.3h6.4V11.7L48,22.3H55.5z
				 M41.5,3.8h2.6c1.4,0,2.6,0.9,2.6,2.4c0,1.5-1.2,2.5-2.6,2.4l-2.6,0V3.8z"/>
		</g>
	</g>
</g>
</svg>
