<?xml version="1.0" encoding="utf-8"?>
<!-- Generator: Adobe Illustrator 26.1.0, SVG Export Plug-In . SVG Version: 6.00 Build 0)  -->
<svg version="1.1" id="Layer_1" xmlns="http://www.w3.org/2000/svg" xmlns:xlink="http://www.w3.org/1999/xlink" x="0px" y="0px"
	 viewBox="0 0 256 256" style="enable-background:new 0 0 256 256;" xml:space="preserve">
<style type="text/css">
	.st0{fill-rule:evenodd;clip-rule:evenodd;fill:#1A2750;}
	.st1{fill:#FFFFFF;}
	.st2{fill:#1A2750;}
</style>
<g>
	<g>
		<path class="st0" d="M252.6,65.7c0-34.4-27.9-62.3-62.3-62.3H65.7C31.3,3.4,3.4,31.3,3.4,65.7v124.6c0,34.4,27.9,62.3,62.3,62.3
			h124.6c34.4,0,62.3-27.9,62.3-62.3L252.6,65.7L252.6,65.7z"/>
	</g>
</g>
<path class="st1" d="M225.3,144.8H43.1v-51l2.7-3.8V77.4h3.8v11.1h4.5V68.2l5.3-5.2h10.4v37.7l3.6-3.4V24.9h5.1l12-11.2h3.8v18.9
	h4.8v66.6h2.6V86.5h4.1V44.3l12.6-11.7l10.7,10v50.8h6v3.8h4.1v-25l2.4-2.2V58.3h11.7v4.6h4.5v33.2h8.6V71.8l9.9-9.2l10.9,10.2v7
	h5.4V69.5h4v31h6.7v-8.2h21v29.5"/>
<path class="st2" d="M87.9,145.8c8.3,0,15.5-3.7,19.3-9.7l-8.9-4.8c-2,3.2-5.8,5.1-10.4,5.1c-8,0-13.1-4.9-13.1-12.4
	c0-7.5,5.1-12.4,13.1-12.4c4.5,0,8.5,1.9,10.4,5.1l8.9-4.8c-3.9-5.9-11.1-9.7-19.3-9.7c-13.6,0-23.5,9.5-23.5,21.8
	C64.5,136.3,74.3,145.8,87.9,145.8z"/>
<path class="st2" d="M112.2,103.1h10.3V145h-10.3V103.1z"/>
<path class="st2" d="M160.5,103.1H127v9.3h11.6v32.7H149v-32.7h11.6L160.5,103.1L160.5,103.1z"/>
<path class="st2" d="M201.7,103.1H190l-8.6,16.2l-8.6-16.2h-11.7l15.2,25.8V145h10.3v-16.1L201.7,103.1z"/>
<path class="st1" d="M54.1,149h-11v32.5h2.5v-12.4h8.6c5.8,0,10.2-4.3,10.2-10.1C64.3,153.3,60,149,54.1,149z M54.1,166.7h-8.6
	v-15.5h8.6c4.4,0,7.7,3.3,7.7,7.8C61.8,163.4,58.6,166.7,54.1,166.7z"/>
<path class="st1" d="M71.2,179.1V149h-2.5v32.5h17.7v-2.4H71.2z"/>
<path class="st1" d="M112.8,181.4h2.6l-12.6-32.5h-2.6l-12.6,32.5h2.6l3.2-8.3h16.3L112.8,181.4z M94.2,170.8l7.2-18.9l7.2,18.9
	H94.2z"/>
<path class="st1" d="M139.8,149v27.9l-19.2-28h-2.2v32.5h2.5v-28l19.2,28h2.2v-32.5L139.8,149L139.8,149z"/>
<path class="st1" d="M170,149v27.9l-19.2-28h-2.2v32.5h2.5v-28l19.2,28h2.2v-32.5L170,149L170,149z"/>
<path class="st1" d="M181.4,179.1v-12.9h14.9v-2.4h-14.9v-12.6h16.1v-2.4H179v32.5h18.7V179L181.4,179.1L181.4,179.1z"/>
<path class="st1" d="M222.6,181.4h2.9l-8.1-13.6c4.1-1.1,7.2-4.8,7.2-9.3c0-5.3-4.3-9.7-9.7-9.7h-12.8v32.5h2.5V168h10.2
	L222.6,181.4z M204.5,151.2h10.3c3.9,0,7.2,3.3,7.2,7.3s-3.3,7.2-7.2,7.2h-10.3V151.2z"/>
<path class="st1" d="M80.9,218.2h8.6L82,205.4c3.8-2,6.4-5.8,6.4-10.2c0-6.6-5.3-12-12-12H62.6v35h8v-11.5h3.8L80.9,218.2z
	 M70.6,190.7h6c2.2,0,4,2,4,4.5s-1.8,4.5-4,4.5h-6V190.7z"/>
<path class="st1" d="M113.8,218.2h8.8l-11.9-35h-10.2l-11.9,35h8.8l1.8-5.5h13L113.8,218.2z M101.4,205.2l4.1-12.8l4.1,12.8H101.4z"
	/>
<path class="st1" d="M137.8,183.3h-14v35h14c9.7,0,17-7.6,17-17.4C154.8,190.9,147.4,183.3,137.8,183.3z M137.8,210.6h-6V191h6
	c5.5,0,9.3,3.8,9.3,9.8C147.1,206.6,143.2,210.6,137.8,210.6z"/>
<path class="st1" d="M157.5,183.3h8v35h-8V183.3z"/>
<path class="st1" d="M186.4,218.9c10.1,0,18.2-7.9,18.2-18.2c0-10.2-8.2-18.2-18.2-18.2c-10.1,0-18.2,7.9-18.2,18.2
	C168.3,211,176.4,218.9,186.4,218.9z M186.4,211.1c-5.7,0-10.2-4.1-10.2-10.3s4.5-10.3,10.2-10.3s10.2,4.1,10.2,10.3
	C196.6,207,192.1,211.1,186.4,211.1z"/>
</svg>
