<?xml version="1.0" encoding="utf-8"?>
<!-- Generator: Adobe Illustrator 26.1.0, SVG Export Plug-In . SVG Version: 6.00 Build 0)  -->
<svg version="1.1" id="Layer_1" xmlns="http://www.w3.org/2000/svg" xmlns:xlink="http://www.w3.org/1999/xlink" x="0px" y="0px"
	 viewBox="0 0 256 256" style="enable-background:new 0 0 256 256;" xml:space="preserve">
<style type="text/css">
	.st0{fill:#2EBD59;}
	.st1{fill:#36393B;}
</style>
<path class="st0" d="M203.2,250.8H53.9c-25.8,0-46.7-20.9-46.7-46.7V53c0-25.8,20.9-46.7,46.7-46.7h149.3
	c25.8,0,46.7,20.9,46.7,46.7v151.1C249.9,229.9,229,250.8,203.2,250.8z"/>
<path class="st1" d="M112.2,216.7H85.8c-3.6,0-6.6-2.9-6.6-6.6V57c0-3.6,2.9-6.6,6.6-6.6h26.4c3.6,0,6.6,2.9,6.6,6.6v153.1
	C118.8,213.8,115.8,216.7,112.2,216.7z"/>
<path class="st1" d="M167.9,217.1h-26.4c-3.6,0-6.6-2.9-6.6-6.6V57.5c0-3.6,2.9-6.6,6.6-6.6h26.4c3.6,0,6.6,2.9,6.6,6.6v153.1
	C174.5,214.2,171.5,217.1,167.9,217.1z"/>
</svg>
